Coordinates
version=1
nRows=15
nColumns=34
inDegrees=yes

Units are S.I. units (second, meters, Newtons, ...)
If the header above contains a line with 'inDegrees', this indicates whether rotational values are in degrees (yes) or radians (no).

endheader
time	pelvis_tilt	pelvis_list	pelvis_rotation	pelvis_tx	pelvis_ty	pelvis_tz	hip_flexion_r	hip_adduction_r	hip_rotation_r	knee_angle_r	ankle_angle_r	subtalar_angle_r	mtp_angle_r	hip_flexion_l	hip_adduction_l	hip_rotation_l	knee_angle_l	ankle_angle_l	subtalar_angle_l	mtp_angle_l	lumbar_extension	lumbar_bending	lumbar_rotation	arm_flex_r	arm_add_r	arm_rot_r	elbow_flex_r	pro_sup_r	arm_flex_l	arm_add_l	arm_rot_l	elbow_flex_l	pro_sup_l
      3.18333330	     -0.99427397	     -1.69886115	      0.72615596	    -11.77555795	      0.92217671	      0.58826534	     -2.36394099	      0.09367586	     -4.83419704	     31.47362138	     17.32679915	     -8.37438731	      0.00000000	     29.35973664	      7.32772071	      8.91091419	     45.92150389	    -10.95825978	    -31.96358854	      0.00000000	    -14.20949404	     -0.67576837	    -28.44229603	   -292.63403530	     26.31956301	    114.48766582	      0.00000000	      3.85891389	     -1.90065190	    -11.30660912	    323.87092389	     29.89483871	     81.13797401
      3.20000000	     -1.70045912	     -1.89255889	      0.92227121	    -11.77996229	      0.91980649	      0.58803952	     -1.79065203	      0.52737142	     -4.47238520	     30.96379795	     17.22410319	     -8.65994370	      0.00000000	     30.66946678	      7.20060407	      8.96292964	     46.54291999	    -10.67141404	    -31.82139339	      0.00000000	    -13.25488011	     -0.21352408	    -28.67056269	   -292.50806432	     26.47446045	    114.43824013	      0.00000000	      4.47238509	     -2.37534106	    -11.45344280	    324.69257698	     32.32621510	     81.17945216
      3.21666670	     -1.86877871	     -1.62755552	      1.03386782	    -11.78240349	      0.91972483	      0.58844058	     -1.87383136	      0.38484993	     -4.35157524	     30.35456178	     17.32924700	     -8.72647060	      0.00000000	     30.97250498	      7.44683259	      8.79312237	     46.58469229	    -10.61847379	    -31.85360291	      0.00000000	    -12.85504001	     -0.18426040	    -28.77891358	   -292.43223265	     26.75934135	    114.44596929	      0.00000000	      4.50490056	     -1.90153072	    -11.84377169	    324.71263160	     32.75681894	     81.18712500
      3.23333330	     -3.11489130	     -1.58261737	      1.16536162	    -11.78233793	      0.91757830	      0.58946686	     -0.52670643	      0.55024143	     -4.19085059	     30.18101038	     16.79077792	    -10.52997646	      0.00000000	     32.47349481	      7.52771333	      8.86599080	     46.89005315	    -10.15638870	    -31.31677503	      0.00000000	    -11.36783654	     -0.57659831	    -29.62558456	   -293.05858764	     26.97350906	    114.90123984	      0.00000000	      5.43893733	     -4.28583628	    -11.79999832	    325.76690146	     38.80471748	     81.54130032
      3.25000000	     -3.62543292	     -1.39555873	      1.34038439	    -11.78218325	      0.91502967	      0.59058792	      0.19622352	      0.45814016	     -4.54769063	     30.37671705	     15.99565396	    -11.96495496	      0.00000000	     33.11285209	      7.75953355	      8.90817582	     47.20222710	     -9.89247619	    -31.05993270	      0.00000000	    -10.51044849	     -0.84348278	    -29.92709945	   -293.36965710	     27.07878428	    115.35349734	      0.00000000	      6.13888632	     -5.01113183	    -11.81880226	    325.68185422	     41.65841571	     81.79617416
      3.26666670	     -4.32589658	     -1.30995843	      1.48443022	    -11.78318114	      0.91014788	      0.59153842	      1.59829019	      0.40927134	     -5.00801000	     31.42209932	     15.36758779	    -13.64696284	      0.00000000	     34.21173115	      7.93270039	      8.95888991	     47.83016427	     -9.44155851	    -31.01844575	      0.00000000	     -9.42187317	     -0.86663267	    -30.35547765	   -293.38671183	     27.34315174	    115.95042317	      0.00000000	      6.80887262	     -5.82410416	    -11.69151594	    325.26168990	     44.14722974	     82.12586564
      3.28333330	     -4.96894252	     -1.37490050	      1.67782466	    -11.78555297	      0.90697421	      0.59217742	      2.87162103	      0.48712283	     -5.76627381	     32.21785862	     14.84092592	    -15.12679924	      0.00000000	     35.26658960	      8.02828886	      9.21840973	     48.32449470	     -8.94054235	    -30.91005064	      0.00000000	     -8.24822745	     -0.64584634	    -30.61771554	   -293.49646107	     27.48366327	    116.61008190	      0.00000000	      7.37686975	     -6.21912125	    -11.41261619	    324.77160030	     45.59274616	     82.51204139
      3.30000000	     -4.89827107	     -1.33836240	      1.76386948	    -11.78960813	      0.90666862	      0.59313472	      3.39139049	      0.38101367	     -6.82713669	     32.86461448	     14.92567468	    -15.89991861	      0.00000000	     35.42882080	      8.16405912	      9.46907689	     48.45206026	     -8.44066419	    -31.03959837	      0.00000000	     -8.03321152	     -0.33821803	    -30.45697737	   -293.15325162	     27.67556814	    116.71925677	      0.00000000	      7.45435261	     -5.72910593	    -11.39585594	    324.77578809	     46.05390754	     82.59623979
      3.31666670	     -5.85020644	     -1.76762325	      1.72341243	    -11.79406930	      0.90599408	      0.59465333	      5.34024579	      1.02142990	     -7.07609598	     33.64211805	     13.49866000	    -18.79919678	      0.00000000	     36.89185256	      7.77802425	      9.84325767	     48.77394727	     -6.42428451	    -29.23753112	      0.00000000	     -6.71576932	      0.33603061	    -30.40442727	   -293.02883926	     27.73188823	    118.00469116	      0.00000000	      8.16681959	     -5.96072224	    -11.36011573	    324.96614272	     47.86862622	     83.57648419
      3.33333330	     -5.73213664	     -1.75479819	      1.66362609	    -11.79837553	      0.90848654	      0.59588236	      5.96542247	      0.89020933	     -8.41223265	     34.00816631	     13.15008291	    -19.52678086	      0.00000000	     36.59474246	      7.92180797	     10.46808509	     48.15766175	     -5.64236837	    -29.26697218	      0.00000000	     -6.54549535	      0.71397978	    -29.95612347	   -292.67432139	     27.80167399	    118.08976435	      0.00000000	      8.21478402	     -5.11337295	    -11.46298454	    325.08328556	     48.57588209	     83.69706717
      3.35000000	     -4.82574859	     -1.81263643	      1.60341065	    -11.80251397	      0.91407568	      0.59714070	      5.39626793	      1.26717728	     -8.87829977	     33.30977564	     10.21776037	    -23.09177267	      0.00000000	     35.04557016	      7.77350734	     10.98261725	     46.89729107	     -3.52621030	    -27.30697836	      0.00000000	     -7.38934199	      0.89532100	    -29.47864503	   -292.33838266	     27.43865055	    118.63022659	      0.00000000	      8.55320519	     -4.94508978	    -11.85823932	    326.17282480	     51.08502121	     84.75967266
      3.36666670	     -3.51928553	     -1.54125451	      1.61654365	    -11.80435900	      0.91927714	      0.59786649	      3.99372145	      1.12019893	    -10.01475854	     32.08216385	      8.30969993	    -24.94393545	      0.00000000	     32.60406828	      8.09486322	     11.82761932	     44.91053090	     -2.66461277	    -26.80188888	      0.00000000	     -8.25822916	      0.86108879	    -28.88658010	   -292.03944431	     27.14747909	    118.69845474	      0.00000000	      8.72886132	     -4.51299314	    -11.85736530	    326.55608030	     52.38009734	     85.61657590
      3.38333330	     -1.54620636	     -1.13343277	      1.69049445	    -11.80441073	      0.92443232	      0.59822257	      1.31925162	      0.86082646	    -11.24539163	     30.27486444	      6.63793134	    -26.36537520	      0.00000000	     29.26189785	      8.60565923	     12.88429579	     42.56376098	     -1.76995330	    -26.70110933	      0.00000000	     -9.91763891	      0.81474841	    -28.22937659	   -291.21679713	     26.92579056	    118.48863950	      0.00000000	      8.84630502	     -3.92907873	    -11.99243806	    327.46247059	     53.52221915	     86.55691648
      3.40000000	      0.62356461	     -0.68769574	      1.69649569	    -11.80550347	      0.92945312	      0.59901277	     -1.86644929	      0.59492092	    -12.48651481	     28.27288642	      5.49515877	    -27.23005736	      0.00000000	     25.77470301	      9.12188995	     14.00746822	     40.14348999	     -0.73577157	    -26.73711322	      0.00000000	    -11.71792883	      0.79824630	    -27.45939916	   -290.22517519	     26.77019504	    118.19635542	      0.00000000	      8.93381199	     -2.95268225	    -12.34887604	    328.59890744	     53.93834414	     87.47661549
      3.41666670	      2.40251301	     -0.40160219	      1.52339611	    -11.80962816	      0.93265546	      0.60045825	     -4.29997322	      0.45226059	    -13.57160661	     26.81475990	      4.70859716	    -28.03050152	      0.00000000	     23.04948106	      9.38867723	     14.89981171	     38.14730850	      0.06650820	    -26.76841947	      0.00000000	    -13.04206150	      0.86431228	    -26.79520491	   -289.10039352	     26.71163632	    117.95709767	      0.00000000	      8.98216879	     -1.89289525	    -12.82240163	    329.69501694	     53.92135972	     88.28057648
